<svg xmlns="http://www.w3.org/2000/svg" xmlns:xlink="http://www.w3.org/1999/xlink" width="500" zoomAndPan="magnify" viewBox="0 0 375 374.999991" height="500" preserveAspectRatio="xMidYMid meet" version="1.0"><defs><g/><clipPath id="d7395b6664"><path d="M 75.5625 72 L 299.8125 72 L 299.8125 303 L 75.5625 303 Z M 75.5625 72 " clip-rule="nonzero"/></clipPath></defs><g clip-path="url(#d7395b6664)"><path fill="#000000" d="M 159.34375 75.558594 C 189.550781 67.960938 220.058594 73.058594 245.152344 87.542969 C 270.726562 102.308594 290.667969 126.832031 298.917969 157.613281 C 299.097656 158.289062 299.269531 158.972656 299.441406 159.652344 L 297.675781 160.265625 C 297.496094 159.542969 297.3125 158.816406 297.117188 158.09375 C 289.003906 127.808594 269.382812 103.679688 244.21875 89.148438 C 219.1875 74.699219 188.671875 69.75 158.546875 77.683594 C 158.828125 76.980469 159.09375 76.273438 159.34375 75.558594 Z M 77.324219 215.082031 C 77.472656 215.675781 77.625 216.269531 77.785156 216.859375 C 85.898438 247.144531 105.519531 271.273438 130.683594 285.804688 C 155.832031 300.324219 186.519531 305.253906 216.789062 297.15625 C 216.496094 297.859375 216.222656 298.574219 215.960938 299.292969 C 185.621094 307.035156 154.953125 301.957031 129.753906 287.410156 C 104.175781 272.644531 84.234375 248.121094 75.988281 217.339844 C 75.84375 216.792969 75.699219 216.246094 75.5625 215.699219 Z M 77.324219 215.082031 " fill-opacity="1" fill-rule="evenodd"/></g><g fill="#e63946" fill-opacity="1"><g transform="translate(81.578806, 196.7959)"><g><path d="M 15.1875 -4.765625 L 7.109375 -4.765625 L 5.125 0 L 0.390625 0 L 11.390625 -25.3125 L 11.65625 -25.3125 L 22.640625 0 L 17.078125 0 Z M 13.59375 -8.796875 L 11.25 -14.734375 L 8.796875 -8.796875 Z M 13.59375 -8.796875 "/></g></g></g><g fill="#e63946" fill-opacity="1"><g transform="translate(131.07882, 196.7959)"><g><path d="M 17.90625 -24.359375 L 17.90625 -19.71875 L 11.984375 -19.71875 L 11.984375 0 L 7.1875 0 L 7.1875 -19.71875 L 1.484375 -19.71875 L 1.484375 -24.359375 Z M 17.90625 -24.359375 "/></g></g></g><g fill="#e63946" fill-opacity="1"><g transform="translate(176.93982, 196.7959)"><g><path d="M 7.9375 -24.359375 L 7.9375 -4.640625 L 19.390625 -4.640625 L 19.390625 0 L 3.140625 0 L 3.140625 -24.359375 Z M 7.9375 -24.359375 "/></g></g></g><g fill="#e63946" fill-opacity="1"><g transform="translate(224.620331, 196.7959)"><g><path d="M 15.1875 -4.765625 L 7.109375 -4.765625 L 5.125 0 L 0.390625 0 L 11.390625 -25.3125 L 11.65625 -25.3125 L 22.640625 0 L 17.078125 0 Z M 13.59375 -8.796875 L 11.25 -14.734375 L 8.796875 -8.796875 Z M 13.59375 -8.796875 "/></g></g></g><g fill="#e63946" fill-opacity="1"><g transform="translate(274.120351, 196.7959)"><g><path d="M 16.15625 -18.46875 C 14.03125 -19.632812 12.1875 -20.21875 10.625 -20.21875 C 9.5625 -20.21875 8.738281 -20.007812 8.15625 -19.59375 C 7.570312 -19.175781 7.28125 -18.546875 7.28125 -17.703125 C 7.28125 -16.929688 7.703125 -16.253906 8.546875 -15.671875 C 9.398438 -15.085938 10.535156 -14.53125 11.953125 -14 C 13.097656 -13.582031 14.078125 -13.101562 14.890625 -12.5625 C 15.703125 -12.019531 16.378906 -11.273438 16.921875 -10.328125 C 17.460938 -9.378906 17.734375 -8.175781 17.734375 -6.71875 C 17.734375 -5.457031 17.40625 -4.289062 16.75 -3.21875 C 16.101562 -2.15625 15.148438 -1.304688 13.890625 -0.671875 C 12.640625 -0.046875 11.144531 0.265625 9.40625 0.265625 C 7.945312 0.265625 6.5 0.0507812 5.0625 -0.375 C 3.625 -0.8125 2.289062 -1.46875 1.0625 -2.34375 L 3.171875 -6.09375 C 4.015625 -5.46875 4.972656 -4.957031 6.046875 -4.5625 C 7.128906 -4.164062 8.101562 -3.96875 8.96875 -3.96875 C 9.976562 -3.96875 10.859375 -4.179688 11.609375 -4.609375 C 12.359375 -5.046875 12.734375 -5.75 12.734375 -6.71875 C 12.734375 -7.976562 11.554688 -9.070312 9.203125 -10 C 7.804688 -10.550781 6.644531 -11.078125 5.71875 -11.578125 C 4.789062 -12.085938 3.988281 -12.816406 3.3125 -13.765625 C 2.644531 -14.710938 2.3125 -15.90625 2.3125 -17.34375 C 2.3125 -19.4375 3 -21.125 4.375 -22.40625 C 5.757812 -23.6875 7.597656 -24.378906 9.890625 -24.484375 C 11.703125 -24.484375 13.210938 -24.28125 14.421875 -23.875 C 15.640625 -23.46875 16.820312 -22.890625 17.96875 -22.140625 Z M 16.15625 -18.46875 "/></g></g></g><g fill="#000000" fill-opacity="1"><g transform="translate(107.941938, 228.912919)"><g><path d="M 9.078125 -0.859375 C 8.816406 -0.640625 8.398438 -0.421875 7.828125 -0.203125 C 7.253906 0.00390625 6.632812 0.109375 5.96875 0.109375 C 4.882812 0.109375 3.945312 -0.125 3.15625 -0.59375 C 2.363281 -1.0625 1.753906 -1.6875 1.328125 -2.46875 C 0.910156 -3.257812 0.703125 -4.128906 0.703125 -5.078125 C 0.703125 -6.117188 0.910156 -7.046875 1.328125 -7.859375 C 1.753906 -8.671875 2.34375 -9.300781 3.09375 -9.75 C 3.851562 -10.207031 4.726562 -10.4375 5.71875 -10.4375 C 6.351562 -10.4375 6.9375 -10.351562 7.46875 -10.1875 C 8 -10.019531 8.46875 -9.8125 8.875 -9.5625 L 8.0625 -7.640625 C 7.320312 -8.191406 6.566406 -8.46875 5.796875 -8.46875 C 5.273438 -8.46875 4.785156 -8.320312 4.328125 -8.03125 C 3.867188 -7.75 3.5 -7.359375 3.21875 -6.859375 C 2.945312 -6.359375 2.8125 -5.800781 2.8125 -5.1875 C 2.8125 -4.53125 2.9375 -3.945312 3.1875 -3.4375 C 3.445312 -2.9375 3.8125 -2.546875 4.28125 -2.265625 C 4.75 -1.992188 5.296875 -1.859375 5.921875 -1.859375 C 6.421875 -1.859375 6.875 -1.9375 7.28125 -2.09375 C 7.6875 -2.257812 8.003906 -2.457031 8.234375 -2.6875 Z M 9.078125 -0.859375 "/></g></g></g><g fill="#000000" fill-opacity="1"><g transform="translate(123.32328, 228.912919)"><g><path d="M 0.703125 -5.15625 C 0.703125 -6.082031 0.9375 -6.953125 1.40625 -7.765625 C 1.882812 -8.585938 2.523438 -9.238281 3.328125 -9.71875 C 4.140625 -10.195312 5.019531 -10.4375 5.96875 -10.4375 C 6.90625 -10.4375 7.78125 -10.195312 8.59375 -9.71875 C 9.40625 -9.238281 10.050781 -8.585938 10.53125 -7.765625 C 11.007812 -6.953125 11.25 -6.082031 11.25 -5.15625 C 11.25 -4.195312 11.007812 -3.316406 10.53125 -2.515625 C 10.050781 -1.710938 9.40625 -1.070312 8.59375 -0.59375 C 7.78125 -0.125 6.90625 0.109375 5.96875 0.109375 C 5.007812 0.109375 4.128906 -0.125 3.328125 -0.59375 C 2.523438 -1.070312 1.882812 -1.710938 1.40625 -2.515625 C 0.9375 -3.316406 0.703125 -4.195312 0.703125 -5.15625 Z M 2.8125 -5.15625 C 2.8125 -4.550781 2.953125 -3.992188 3.234375 -3.484375 C 3.515625 -2.984375 3.898438 -2.585938 4.390625 -2.296875 C 4.890625 -2.003906 5.4375 -1.859375 6.03125 -1.859375 C 6.613281 -1.859375 7.140625 -2.003906 7.609375 -2.296875 C 8.085938 -2.585938 8.460938 -2.984375 8.734375 -3.484375 C 9.003906 -3.984375 9.140625 -4.539062 9.140625 -5.15625 C 9.140625 -5.769531 9 -6.328125 8.71875 -6.828125 C 8.445312 -7.335938 8.066406 -7.738281 7.578125 -8.03125 C 7.097656 -8.320312 6.566406 -8.46875 5.984375 -8.46875 C 5.390625 -8.46875 4.847656 -8.320312 4.359375 -8.03125 C 3.878906 -7.738281 3.5 -7.335938 3.21875 -6.828125 C 2.945312 -6.328125 2.8125 -5.769531 2.8125 -5.15625 Z M 2.8125 -5.15625 "/></g></g></g><g fill="#000000" fill-opacity="1"><g transform="translate(140.877042, 228.912919)"><g><path d="M 11.96875 -10.75 L 11.96875 0 L 9.9375 0 L 9.9375 -4.921875 L 6.5625 -0.140625 L 6.53125 -0.140625 L 3.296875 -4.609375 L 3.296875 0 L 1.328125 0 L 1.328125 -10.75 L 1.34375 -10.75 L 6.578125 -3.328125 L 11.9375 -10.75 Z M 11.96875 -10.75 "/></g></g></g><g fill="#000000" fill-opacity="1"><g transform="translate(159.776312, 228.912919)"><g><path d="M 4.46875 -10.328125 C 5.726562 -10.328125 6.703125 -10.015625 7.390625 -9.390625 C 8.085938 -8.765625 8.4375 -7.914062 8.4375 -6.84375 C 8.4375 -6.226562 8.316406 -5.648438 8.078125 -5.109375 C 7.835938 -4.578125 7.445312 -4.132812 6.90625 -3.78125 C 6.375 -3.4375 5.679688 -3.265625 4.828125 -3.265625 L 3.375 -3.265625 L 3.375 0 L 1.328125 0 L 1.328125 -10.328125 Z M 4.8125 -5.25 C 5.195312 -5.25 5.503906 -5.332031 5.734375 -5.5 C 5.972656 -5.675781 6.140625 -5.878906 6.234375 -6.109375 C 6.335938 -6.347656 6.390625 -6.578125 6.390625 -6.796875 C 6.390625 -7.160156 6.28125 -7.507812 6.0625 -7.84375 C 5.851562 -8.1875 5.441406 -8.359375 4.828125 -8.359375 L 3.375 -8.359375 L 3.375 -5.25 Z M 4.8125 -5.25 "/></g></g></g><g fill="#000000" fill-opacity="1"><g transform="translate(174.302698, 228.912919)"><g><path d="M 8.375 -10.328125 L 8.375 -8.359375 L 3.375 -8.359375 L 3.375 -6.15625 L 7.796875 -6.15625 L 7.796875 -4.203125 L 3.375 -4.203125 L 3.375 -1.96875 L 8.578125 -1.96875 L 8.578125 0 L 1.328125 0 L 1.328125 -10.328125 Z M 8.375 -10.328125 "/></g></g></g><g fill="#000000" fill-opacity="1"><g transform="translate(189.24955, 228.912919)"><g><path d="M 7.59375 -10.328125 L 7.59375 -8.359375 L 5.078125 -8.359375 L 5.078125 0 L 3.046875 0 L 3.046875 -8.359375 L 0.625 -8.359375 L 0.625 -10.328125 Z M 7.59375 -10.328125 "/></g></g></g><g fill="#000000" fill-opacity="1"><g transform="translate(203.075156, 228.912919)"><g><path d="M 3.375 -10.328125 L 3.375 0 L 1.328125 0 L 1.328125 -10.328125 Z M 3.375 -10.328125 "/></g></g></g><g fill="#000000" fill-opacity="1"><g transform="translate(213.382849, 228.912919)"><g><path d="M 7.59375 -10.328125 L 7.59375 -8.359375 L 5.078125 -8.359375 L 5.078125 0 L 3.046875 0 L 3.046875 -8.359375 L 0.625 -8.359375 L 0.625 -10.328125 Z M 7.59375 -10.328125 "/></g></g></g><g fill="#000000" fill-opacity="1"><g transform="translate(227.208456, 228.912919)"><g><path d="M 3.375 -10.328125 L 3.375 0 L 1.328125 0 L 1.328125 -10.328125 Z M 3.375 -10.328125 "/></g></g></g><g fill="#000000" fill-opacity="1"><g transform="translate(237.516148, 228.912919)"><g><path d="M 0.703125 -5.15625 C 0.703125 -6.082031 0.9375 -6.953125 1.40625 -7.765625 C 1.882812 -8.585938 2.523438 -9.238281 3.328125 -9.71875 C 4.140625 -10.195312 5.019531 -10.4375 5.96875 -10.4375 C 6.90625 -10.4375 7.78125 -10.195312 8.59375 -9.71875 C 9.40625 -9.238281 10.050781 -8.585938 10.53125 -7.765625 C 11.007812 -6.953125 11.25 -6.082031 11.25 -5.15625 C 11.25 -4.195312 11.007812 -3.316406 10.53125 -2.515625 C 10.050781 -1.710938 9.40625 -1.070312 8.59375 -0.59375 C 7.78125 -0.125 6.90625 0.109375 5.96875 0.109375 C 5.007812 0.109375 4.128906 -0.125 3.328125 -0.59375 C 2.523438 -1.070312 1.882812 -1.710938 1.40625 -2.515625 C 0.9375 -3.316406 0.703125 -4.195312 0.703125 -5.15625 Z M 2.8125 -5.15625 C 2.8125 -4.550781 2.953125 -3.992188 3.234375 -3.484375 C 3.515625 -2.984375 3.898438 -2.585938 4.390625 -2.296875 C 4.890625 -2.003906 5.4375 -1.859375 6.03125 -1.859375 C 6.613281 -1.859375 7.140625 -2.003906 7.609375 -2.296875 C 8.085938 -2.585938 8.460938 -2.984375 8.734375 -3.484375 C 9.003906 -3.984375 9.140625 -4.539062 9.140625 -5.15625 C 9.140625 -5.769531 9 -6.328125 8.71875 -6.828125 C 8.445312 -7.335938 8.066406 -7.738281 7.578125 -8.03125 C 7.097656 -8.320312 6.566406 -8.46875 5.984375 -8.46875 C 5.390625 -8.46875 4.847656 -8.320312 4.359375 -8.03125 C 3.878906 -7.738281 3.5 -7.335938 3.21875 -6.828125 C 2.945312 -6.328125 2.8125 -5.769531 2.8125 -5.15625 Z M 2.8125 -5.15625 "/></g></g></g><g fill="#000000" fill-opacity="1"><g transform="translate(255.069908, 228.912919)"><g><path d="M 10.640625 -10.328125 L 10.640625 0.421875 L 10.578125 0.421875 L 3.359375 -6.109375 L 3.390625 0 L 1.328125 0 L 1.328125 -10.734375 L 1.421875 -10.734375 L 8.625 -4.109375 L 8.59375 -10.328125 Z M 10.640625 -10.328125 "/></g></g></g></svg>